Coordinates
version=1
nRows=65
nColumns=12
inDegrees=yes

Units are S.I. units (second, meters, Newtons, ...)
Angles are in degrees

endheader
time	SC_y	SC_z	SC_x	AC_y	AC_z	AC_x	GH_y	GH_z	GH_yy	EL_x	PS_y
       0.0              -21.15          9.042          16.96          35.28         -13.61          14.43          132.1          36.89          157.9           74.9          58.31
   0.04362              -21.16          9.042          16.97          35.28          -13.6          14.43          132.0           36.9          157.8           74.9          58.32
   0.08724              -21.16          9.041          16.97          35.28          -13.6          14.43          132.0          36.91          157.8           74.9          58.34
    0.1309              -21.17           9.04          16.98          35.28         -13.59          14.43          132.0          36.91          157.7           74.9          58.35
    0.1745              -21.17          9.039          16.98          35.28         -13.59          14.43          131.9          36.92          157.7           74.9          58.36
    0.2181              -21.18          9.038          16.99          35.28         -13.59          14.43          131.9          36.93          157.6           74.9          58.38
    0.2617              -21.18          9.037           17.0          35.27         -13.58          14.43          131.8          36.94          157.6          74.91          58.39
    0.3054              -21.19          9.036          17.01          35.27         -13.58          14.43          131.8          36.95          157.5          74.91          58.41
     0.349               -21.2          9.035          17.01          35.27         -13.57          14.43          131.7          36.96          157.4          74.91          58.42
    0.3926               -21.2          9.034          17.02          35.27         -13.57          14.43          131.6          36.97          157.4          74.91          58.44
    0.4362              -21.21          9.033          17.03          35.27         -13.56          14.43          131.6          36.98          157.3          74.92          58.46
    0.4798              -21.22          9.031          17.04          35.27         -13.55          14.43          131.5          36.99          157.2          74.92          58.48
    0.5235              -21.23           9.03          17.05          35.27         -13.55          14.43          131.4           37.0          157.1          74.92          58.51
    0.5671              -21.24          9.028          17.07          35.26         -13.54          14.43          131.3          37.01          157.1          74.92          58.53
    0.6107              -21.25          9.026          17.08          35.26         -13.53          14.43          131.3          37.03          157.0          74.93          58.56
    0.6543              -21.26          9.024          17.09          35.26         -13.52          14.43          131.2          37.04          156.8          74.93          58.59
    0.6979              -21.27          9.022          17.11          35.26         -13.51          14.44          131.1          37.06          156.7          74.94          58.62
    0.7416              -21.29           9.02          17.12          35.26          -13.5          14.44          130.9          37.08          156.6          74.94          58.66
    0.7852               -21.3          9.018          17.14          35.25         -13.49          14.44          130.8           37.1          156.5          74.95          58.69
    0.8288              -21.32          9.015          17.16          35.25         -13.48          14.44          130.7          37.12          156.3          74.95          58.73
    0.8724              -21.34          9.012          17.18          35.25         -13.47          14.44          130.5          37.15          156.1          74.96          58.78
    0.9161              -21.36          9.009          17.21          35.24         -13.45          14.44          130.3          37.18          156.0          74.96          58.83
    0.9597              -21.38          9.005          17.23          35.24         -13.43          14.44          130.2          37.21          155.8          74.97          58.89
     1.003               -21.4          9.001          17.26          35.24         -13.42          14.45          130.0          37.24          155.5          74.98          58.95
     1.047              -21.43          8.997           17.3          35.23          -13.4          14.45          129.7          37.28          155.3          74.99          59.02
     1.091              -21.46          8.992          17.33          35.23         -13.37          14.45          129.5          37.32          155.0           75.0          59.09
     1.134              -21.49          8.986          17.37          35.22         -13.35          14.45          129.2          37.36          154.7          75.01          59.18
     1.178              -21.53           8.98          17.42          35.22         -13.32          14.46          128.9          37.42          154.3          75.02          59.27
     1.221              -21.57          8.973          17.47          35.21         -13.29          14.46          128.5          37.47          153.9          75.04          59.38
     1.265              -21.62          8.965          17.53           35.2         -13.25          14.46          128.1          37.54          153.5          75.06          59.51
     1.309              -21.67          8.956           17.6          35.19         -13.21          14.47          127.6          37.62          153.0          75.07          59.65
     1.352              -21.74          8.945          17.67          35.18         -13.16          14.47          127.1          37.71          152.4           75.1          59.81
     1.396              -21.81          8.933          17.76          35.17          -13.1          14.48          126.5          37.81          151.7          75.12          59.99
      1.44              -21.89          8.919          17.87          35.15         -13.04          14.49          125.7          37.92          150.9          75.15          60.21
     1.483              -21.99          8.902          17.99          35.14         -12.96           14.5          124.9          38.06          150.0          75.18          60.46
     1.527              -22.11          8.883          18.13          35.12         -12.87          14.51          123.9          38.22          148.9          75.22          60.76
      1.57              -22.24           8.86           18.3          35.09         -12.77          14.52          122.7          38.42          147.6          75.27          61.12
     1.614              -22.41          8.832           18.5          35.06         -12.64          14.53          121.3          38.65          146.0          75.33          61.54
     1.658              -22.61          8.798          18.75          35.03         -12.49          14.55          119.5          38.93          144.1           75.4          62.06
     1.701              -22.86          8.757          19.04          34.99          -12.3          14.57          117.4          39.27          141.8          75.48          62.69
     1.745              -23.16          8.707          19.41          34.93         -12.06           14.6          114.8          39.69          139.0          75.59          63.46
     1.788              -23.53          8.644          19.88          34.87         -11.78          14.63          111.6          40.21          135.4          75.72          64.43
     1.832              -24.01          8.564          20.46          34.79         -11.41          14.67          107.5          40.87          130.9          75.88          65.65
     1.876              -24.61          8.464          21.19          34.68         -10.95          14.72          102.3          41.71          125.3          76.09           67.2
     1.919              -25.38          8.334          22.14          34.55         -10.35          14.79          95.66          42.79          118.0          76.35          69.19
     1.963              -26.37          8.168          23.35          34.38         -9.592          14.87          87.13          44.17          108.6          76.69          71.73
     2.007              -27.64          7.957           24.9          34.16         -8.619          14.98          76.23          45.93          96.71          77.13          74.99
      2.05              -29.23           7.69          26.85          33.89         -7.395          15.11          62.53          48.15          81.71          77.68          79.08
     2.094              -31.17          7.366          29.22          33.55         -5.905          15.28          45.84          50.85          63.43          78.35          84.06
     2.137              -33.42           6.99          31.97          33.17         -4.177          15.47          26.49          53.98          42.25          79.12          89.84
     2.181              -35.85          6.582          34.95          32.75         -2.306          15.68          5.534          57.37           19.3          79.96           96.1
     2.225              -38.28          6.175          37.93          32.33        -0.4347          15.88         -15.42          60.76         -3.637           80.8          102.4
     2.268              -40.53          5.799          40.68          31.94          1.293          16.07         -34.77          63.89         -24.82          81.57          108.1
     2.312              -42.47          5.474          43.05          31.61          2.784          16.24         -51.47          66.59          -43.1          82.24          113.1
     2.356              -44.06          5.208           45.0          31.33          4.007          16.37         -65.17          68.81          -58.1          82.79          117.2
     2.399              -45.33          4.996          46.55          31.12           4.98          16.48         -76.06          70.57         -70.03          83.22          120.5
     2.443              -46.32           4.83          47.76          30.94          5.742          16.57         -84.59          71.95         -79.37          83.56          123.0
     2.486              -47.09          4.701          48.71          30.81          6.335          16.63         -91.24          73.03         -86.65          83.83          125.0
      2.53              -47.69            4.6          49.45          30.71          6.799          16.68         -96.43          73.87         -92.33          84.04          126.5
     2.574              -48.17           4.52          50.03          30.63          7.164          16.72         -100.5          74.53         -96.81           84.2          127.8
     2.617              -48.54          4.457          50.49          30.56          7.453          16.76         -103.8          75.05         -100.4          84.33          128.7
     2.661              -48.85          4.407          50.86          30.51          7.685          16.78         -106.4          75.48         -103.2          84.43          129.5
     2.705              -49.09          4.366          51.16          30.47          7.874           16.8         -108.5          75.82         -105.5          84.52          130.1
     2.748              -49.29          4.332           51.4          30.43          8.028          16.82         -110.2           76.1         -107.4          84.59          130.6
     2.792              -49.46          4.305           51.6           30.4          8.155          16.83         -111.6          76.33         -109.0          84.64          131.1
